<?xml version="1.0" encoding="utf-8"?>
<!-- Generator: Adobe Illustrator 15.0.2, SVG Export Plug-In . SVG Version: 6.00 Build 0)  -->
<!DOCTYPE svg PUBLIC "-//W3C//DTD SVG 1.1//EN" "http://www.w3.org/Graphics/SVG/1.1/DTD/svg11.dtd">
<svg version="1.1" id="Layer_1" xmlns="http://www.w3.org/2000/svg" xmlns:xlink="http://www.w3.org/1999/xlink" x="0px" y="0px"
	 width="80.346px" height="56.5px" viewBox="2.154 3 80.346 56.5" style="enable-background:new 2.154 3 80.346 56.5;"
	 xml:space="preserve">
<style type="text/css">
<![CDATA[
	.st0{fill:#FFFFFF;stroke:#000000;stroke-miterlimit:10;}
	.st1{fill:#FFFFFF;stroke:#000000;stroke-width:0.5;stroke-miterlimit:10;}
	.st2{fill:none;stroke:#000000;stroke-width:0.5;stroke-linecap:round;stroke-miterlimit:10;}
	.st3{fill:#22B573;}
	.st4{fill:#FF7BAC;}
	.st5{fill:#FFFFFF;}
	.st6{opacity:0.1;enable-background:new    ;}
]]>
</style>
<path class="st0" d="M8.667,47.882c-2.083,2.914-4.588,4.694-5.594,3.974c-1.007-0.721-0.136-3.664,1.947-6.581
	c2.083-2.916,4.588-4.698,5.595-3.979C11.623,42.018,10.75,44.961,8.667,47.882z"/>
<line class="st2" x1="5.5" y1="48.083" x2="12" y2="39.917"/>
<path class="st0" d="M75.986,47.882c2.084,2.914,4.588,4.694,5.595,3.974s0.136-3.664-1.947-6.581
	c-2.083-2.916-4.588-4.698-5.595-3.979C73.031,42.018,73.904,44.961,75.986,47.882z"/>
<line class="st2" x1="79.154" y1="48.083" x2="72.654" y2="39.917"/>
<path id="body" class="st0" d="M76.5,33.25C76.5,49.682,62.047,59,41.75,59C21.454,59,7,49.682,7,33.25
	C7,16.819,21.454,3.5,41.75,3.5C62.047,3.5,76.5,16.819,76.5,33.25z"/>
<g>
	<path class="st1" d="M33.5,37.25c0,5.385-5.373,8.75-12,8.75s-12-3.365-12-8.75s5.373-9.75,12-9.75S33.5,31.865,33.5,37.25z"/>
	<path d="M31.878,37.537c0,4.438-4.506,7.213-10.064,7.213c-5.559,0-10.064-2.774-10.064-7.213S16.256,29.5,21.814,29.5
		C27.373,29.5,31.878,33.099,31.878,37.537z"/>
	<path class="st3" d="M23.185,42.304c-3.371,0.486-6.47-0.142-8.207-1.73c1.055,2.112,4.114,3.312,7.695,3.219
		c4.396-0.113,7.909-2.128,7.83-5.206c-0.003-0.139-0.022-0.275-0.04-0.412C29.438,40.263,26.655,41.804,23.185,42.304z"/>
	<path class="st5" d="M19.141,31.444c0.424,0.491-0.08,1.462-1.028,2.282c-0.949,0.82-1.982,1.177-2.406,0.686
		c-0.425-0.491,0-1.553,0.949-2.373C17.604,31.22,18.717,30.954,19.141,31.444z"/>
</g>
<g>
	<path class="st1" d="M73.02,37.125c0,5.385-5.373,8.75-12,8.75s-12-3.365-12-8.75s5.373-9.75,12-9.75S73.02,31.74,73.02,37.125z"/>
	<path d="M71.398,37.412c0,4.438-4.506,7.213-10.064,7.213S51.27,41.851,51.27,37.412s4.506-8.037,10.064-8.037
		S71.398,32.974,71.398,37.412z"/>
	<path class="st3" d="M62.704,42.179c-3.37,0.486-6.47-0.142-8.207-1.73c1.055,2.112,4.114,3.312,7.694,3.219
		c4.396-0.113,7.91-2.128,7.83-5.206c-0.004-0.139-0.021-0.275-0.039-0.412C68.958,40.138,66.175,41.679,62.704,42.179z"/>
	<path class="st5" d="M58.66,31.319c0.424,0.491-0.08,1.462-1.028,2.282s-1.981,1.177-2.405,0.686c-0.426-0.491,0-1.553,0.948-2.373
		C57.123,31.095,58.236,30.829,58.66,31.319z"/>
</g>
<ellipse id="mouth" class="st4" cx="42.167" cy="54" rx="1.083" ry="2"/>
<path id="bodyshadow" class="st6" d="M41.75,3.5C21.454,3.5,7,16.819,7,33.25C7,49.682,21.454,59,41.75,59
	c20.297,0,34.75-9.318,34.75-25.75C76.5,16.819,62.047,3.5,41.75,3.5z M42.476,56.064C24.232,58.01,10.34,50.941,8.751,36.039
	C7.162,21.136,18.865,7.669,37.107,5.724c18.245-1.945,32.521,8.751,34.111,23.654C72.807,44.281,60.721,54.119,42.476,56.064z"/>
</svg>
